<svg height="480pt" viewBox="-48 0 480 480" width="480pt" xmlns="http://www.w3.org/2000/svg"><path d="m256 480h-224c-17.671875 0-32-14.328125-32-32v-416c0-17.671875 14.328125-32 32-32h224c17.671875 0 32 14.328125 32 32v416c0 17.671875-14.328125 32-32 32zm0 0" fill="#656665"/><path d="m160 432c0 8.835938-7.164062 16-16 16s-16-7.164062-16-16 7.164062-16 16-16 16 7.164062 16 16zm0 0" fill="#bab8b9"/><path d="m32 64h224v320h-224zm0 0" fill="#d9d7d8"/><path d="m32 64h192v320h-192zm0 0" fill="#efedee"/><path d="m176 272h-72c-22.089844 0-40 17.910156-40 40s17.910156 40 40 40h32c22.089844 0 40-17.910156 40-40zm0 0" fill="#eebc5a"/><path d="m152 312v-40h-48c-22.089844 0-40 17.910156-40 40s17.910156 40 40 40h8c22.089844 0 40-17.910156 40-40zm0 0" fill="#f8cf6a"/><path d="m160 96h224v144h-224zm0 0" fill="#70b48f"/><path d="m384 240-112-112-112 112" fill="#599072"/><path d="m272 136-104 104h208zm0 0" fill="#70b48f"/><path d="m160 96 112 96 112-96" fill="#599072"/><path d="m374.664062 96h-205.328124l102.664062 88zm0 0" fill="#70b48f"/><g fill="#bab8b9"><path d="m112 24h64v16h-64zm0 0"/><path d="m88 304h16v16h-16zm0 0"/><path d="m120 304h16v16h-16zm0 0"/></g></svg>