<?xml version="1.0" encoding="iso-8859-1"?>
<!-- Generator: Adobe Illustrator 19.0.0, SVG Export Plug-In . SVG Version: 6.00 Build 0)  -->
<svg version="1.1" id="Capa_1" xmlns="http://www.w3.org/2000/svg" xmlns:xlink="http://www.w3.org/1999/xlink" x="0px" y="0px"
	 viewBox="0 0 512 512" style="enable-background:new 0 0 512 512;" xml:space="preserve">
<path style="fill:#FDB62F;" d="M397.241,132.414L397.241,132.414c53.628,0,97.103,43.476,97.103,97.103v105.931
	c0,53.628-43.476,97.103-97.103,97.103l0,0c-53.628,0-97.103-43.476-97.103-97.103V229.517
	C300.138,175.89,343.614,132.414,397.241,132.414z"/>
<path style="fill:#FCA430;" d="M465.214,160.221c-13.506,158.102-78.565,218.306-141.241,238.345
	c35.196,40.466,96.53,44.738,136.995,9.551c21.045-18.308,33.201-44.774,33.377-72.669V229.517
	C494.336,203.441,483.831,178.476,465.214,160.221z"/>
<path style="fill:#FD7B2F;" d="M494.345,303.757v-42.549l-31.691-31.691l27.63-27.63c-1.827-6.109-4.255-12.023-7.239-17.655
	l-32.839,32.839l-40.519-40.519l32.927-32.839c-5.632-2.984-11.546-5.411-17.655-7.239l-27.719,27.63l-27.63-27.63
	c-6.109,1.827-12.023,4.255-17.655,7.239l32.839,32.839l-40.519,40.519l-32.839-32.927c-2.984,5.632-5.411,11.546-7.239,17.655
	l27.63,27.719l-31.691,31.691v42.549l31.691,31.691l-27.63,27.63c1.827,6.109,4.255,12.023,7.239,17.655l32.839-32.839
	l40.519,40.519l-32.927,32.839c5.632,2.984,11.546,5.411,17.655,7.239l27.719-27.63l27.63,27.63
	c6.109-1.827,12.023-4.255,17.655-7.239l-32.839-32.839l40.519-40.519l32.839,32.927c2.984-5.632,5.411-11.546,7.239-17.655
	l-27.63-27.719L494.345,303.757z M397.241,188.999l40.519,40.519l-40.519,40.519l-40.519-40.519L397.241,188.999z M303.757,282.483
	l40.519-40.519l40.519,40.519l-40.519,40.519L303.757,282.483z M397.241,375.967l-40.519-40.519l40.519-40.519l40.519,40.519
	L397.241,375.967z M409.688,282.483l40.519-40.519l40.519,40.519l-40.519,40.519L409.688,282.483z"/>
<polygon style="fill:#679522;" points="414.897,88.276 414.897,97.103 441.379,70.621 485.517,26.483 441.379,26.483 
	397.241,70.621 "/>
<path style="fill:#88B337;" d="M414.897,97.103v-8.828l-17.655-17.655l-17.655,17.655v45.815c11.661-2.233,23.649-2.233,35.31,0
	V97.103z"/>
<g>
	<polygon style="fill:#5C851D;" points="414.897,52.966 414.897,8.828 397.241,0 379.586,8.828 379.586,52.966 397.241,70.621 	"/>
	<path style="fill:#5C851D;" d="M414.897,132.414v1.677c12.588,2.33,24.585,7.133,35.31,14.124v-42.284l35.31-35.31h-44.138
		l-26.483,26.483V132.414z"/>
</g>
<g>
	<path style="fill:#679522;" d="M379.586,132.414v-35.31l-26.483-26.483h-44.138l35.31,35.31v42.284
		c10.726-6.991,22.722-11.794,35.31-14.124V132.414z"/>
	<polygon style="fill:#679522;" points="379.586,88.276 397.241,70.621 379.586,52.966 379.586,52.966 353.103,26.483 
		308.966,26.483 353.103,70.621 379.586,97.103 	"/>
</g>
<g>
	<rect x="388.414" y="220.69" style="fill:#FD7B2F;" width="17.655" height="17.655"/>
	<rect x="441.379" y="167.724" style="fill:#FD7B2F;" width="17.655" height="17.655"/>
	<rect x="441.379" y="273.655" style="fill:#FD7B2F;" width="17.655" height="17.655"/>
	<rect x="388.414" y="326.621" style="fill:#FD7B2F;" width="17.655" height="17.655"/>
	<rect x="441.379" y="379.586" style="fill:#FD7B2F;" width="17.655" height="17.655"/>
	<rect x="335.448" y="379.586" style="fill:#FD7B2F;" width="17.655" height="17.655"/>
</g>
<circle style="fill:#679522;" cx="176.552" cy="256" r="176.552"/>
<path style="fill:#88B337;" d="M176.552,79.448v44.138c73.128,0,132.414,59.286,132.414,132.414s-59.286,132.414-132.414,132.414
	v44.138c97.51,0,176.552-79.042,176.552-176.552S274.061,79.448,176.552,79.448z"/>
<path style="fill:#DE4C3C;" d="M308.966,256c0-73.128-59.286-132.414-132.414-132.414v264.828
	C249.679,388.414,308.966,329.128,308.966,256z"/>
<g>
	<rect x="203.034" y="158.897" style="fill:#8C421C;" width="17.655" height="17.655"/>
	<rect x="203.034" y="203.034" style="fill:#8C421C;" width="17.655" height="17.655"/>
	<rect x="203.034" y="247.172" style="fill:#8C421C;" width="17.655" height="17.655"/>
	<rect x="203.034" y="291.31" style="fill:#8C421C;" width="17.655" height="17.655"/>
	<rect x="203.034" y="335.448" style="fill:#8C421C;" width="17.655" height="17.655"/>
	<rect x="238.345" y="185.379" style="fill:#8C421C;" width="17.655" height="17.655"/>
	<rect x="238.345" y="229.517" style="fill:#8C421C;" width="17.655" height="17.655"/>
	<rect x="238.345" y="273.655" style="fill:#8C421C;" width="17.655" height="17.655"/>
	<rect x="238.345" y="317.793" style="fill:#8C421C;" width="17.655" height="17.655"/>
</g>
<path style="fill:#CFCFCF;" d="M389.738,512H122.262C69.394,511.991,21.486,480.856,0,432.552h512
	C490.514,480.856,442.606,511.991,389.738,512z"/>
<path style="fill:#BFBFBF;" d="M397.241,432.552c-21.486,48.305-69.394,79.439-122.262,79.448h114.759
	c52.868-0.009,100.776-31.144,122.262-79.448H397.241z"/>
<circle style="fill:#FD7B2F;" cx="247.172" cy="361.931" r="70.621"/>
<path style="fill:#F46B27;" d="M282.483,300.756c0,1.236,0,2.472,0,3.796c0,51.191-41.498,92.69-92.69,92.69h-3.796
	c19.518,33.766,62.72,45.312,96.486,25.785c33.766-19.518,45.312-62.72,25.785-96.486
	C302.08,315.842,293.191,306.944,282.483,300.756z"/>
<path style="fill:#88B337;" d="M88.276,273.655L88.276,273.655c0-19.5,15.81-35.31,35.31-35.31h26.483
	c0,19.5-15.81,35.31-35.31,35.31H88.276z"/>
<path style="fill:#8C421C;" d="M97.103,326.621H79.448v-22.334c0.053-20.877-11.75-39.98-30.455-49.258l7.945-15.713
	c24.7,12.209,40.289,37.42,40.166,64.971V326.621z"/>
<path style="fill:#DE4C3C;" d="M120.143,432.552L120.143,432.552c-9.066,0.009-17.761-3.584-24.188-9.975l-7.68-7.68l-7.68,7.68
	c-6.426,6.391-15.122,9.984-24.188,9.975l0,0c-12.932-0.026-24.744-7.336-30.543-18.891l-13.859-27.63
	C4.184,370.308,0.079,353.006,0,335.448l0,0c0-24.373,19.765-44.138,44.138-44.138l0,0c11.582,0.053,22.678,4.643,30.897,12.8
	l13.241,13.683l13.683-13.683c8.218-8.157,19.315-12.747,30.897-12.8l0,0c24.205,0.238,43.697,19.933,43.697,44.138l0,0
	c-0.009,17.708-4.122,35.169-12.006,51.023l-13.859,27.63C144.764,425.49,132.979,432.614,120.143,432.552z"/>
<g>
</g>
<g>
</g>
<g>
</g>
<g>
</g>
<g>
</g>
<g>
</g>
<g>
</g>
<g>
</g>
<g>
</g>
<g>
</g>
<g>
</g>
<g>
</g>
<g>
</g>
<g>
</g>
<g>
</g>
</svg>
