<?xml version="1.0" encoding="iso-8859-1"?>
<!-- Generator: Adobe Illustrator 19.0.0, SVG Export Plug-In . SVG Version: 6.00 Build 0)  -->
<svg version="1.1" id="Capa_1" xmlns="http://www.w3.org/2000/svg" xmlns:xlink="http://www.w3.org/1999/xlink" x="0px" y="0px"
	 viewBox="0 0 512 512" style="enable-background:new 0 0 512 512;" xml:space="preserve">
<polygon style="fill:#CF4737;" points="221.867,401.067 102.4,401.067 85.333,170.667 238.933,170.667 "/>
<rect x="85.333" y="136.533" style="fill:#CFCFCF;" width="153.6" height="34.133"/>
<g>
	<rect x="153.6" y="59.733" style="fill:#DE4C3C;" width="17.067" height="76.8"/>
	<polygon style="fill:#DE4C3C;" points="85.333,170.667 102.4,401.067 128,401.067 128,170.667 	"/>
</g>
<rect x="85.333" y="136.533" style="fill:#E5E5E5;" width="42.667" height="34.133"/>
<path style="fill:#DE4C3C;" d="M256,0C114.611,0,0,114.611,0,256s114.611,256,256,256s256-114.611,256-256S397.389,0,256,0z
	 M256,17.067c60.416-0.017,118.588,22.921,162.731,64.171L81.237,418.731C-8.636,322.108-3.166,170.923,93.457,81.05
	C137.617,39.97,195.686,17.118,256,17.067z M256,494.933c-60.416,0.017-118.588-22.921-162.731-64.171L430.763,93.269
	c89.873,96.623,84.403,247.808-12.22,337.681C374.383,472.03,316.314,494.882,256,494.933z"/>
<path style="fill:#8C421C;" d="M179.2,290.133h221.867c14.14,0,25.6,11.46,25.6,25.6l0,0c0,14.14-11.46,25.6-25.6,25.6H179.2
	c-14.14,0-25.6-11.46-25.6-25.6l0,0C153.6,301.594,165.06,290.133,179.2,290.133z"/>
<g>
	<path style="fill:#FD9133;" d="M247.467,196.267H332.8c51.84,0,93.867,42.027,93.867,93.867l0,0l0,0H153.6l0,0l0,0
		C153.6,238.293,195.627,196.267,247.467,196.267z"/>
	<path style="fill:#FD9133;" d="M153.6,341.333h273.067l0,0v34.133c0,14.14-11.46,25.6-25.6,25.6H179.2
		c-14.14,0-25.6-11.46-25.6-25.6V341.333L153.6,341.333z"/>
</g>
<g>
	<path style="fill:#ED8326;" d="M375.467,290.133h51.2c0-51.84-42.027-93.867-93.867-93.867h-51.2
		C333.44,196.267,375.467,238.293,375.467,290.133z"/>
	<path style="fill:#ED8326;" d="M375.467,375.467c0,14.14-11.46,25.6-25.6,25.6h51.2c14.14,0,25.6-11.46,25.6-25.6v-34.133h-51.2
		V375.467z"/>
</g>
<polygon style="fill:#FDB62F;" points="256,290.133 324.267,341.333 392.533,290.133 "/>
<g>
	<rect x="298.667" y="221.867" style="fill:#E5E5E5;" width="17.067" height="17.067"/>
	<rect x="264.533" y="221.867" style="fill:#E5E5E5;" width="17.067" height="17.067"/>
	<rect x="332.8" y="221.867" style="fill:#E5E5E5;" width="17.067" height="17.067"/>
	<rect x="230.4" y="221.867" style="fill:#E5E5E5;" width="17.067" height="17.067"/>
</g>
<g>
</g>
<g>
</g>
<g>
</g>
<g>
</g>
<g>
</g>
<g>
</g>
<g>
</g>
<g>
</g>
<g>
</g>
<g>
</g>
<g>
</g>
<g>
</g>
<g>
</g>
<g>
</g>
<g>
</g>
</svg>
