<?xml version="1.0" encoding="iso-8859-1"?>
<!-- Generator: Adobe Illustrator 19.0.0, SVG Export Plug-In . SVG Version: 6.00 Build 0)  -->
<svg version="1.1" id="Capa_1" xmlns="http://www.w3.org/2000/svg" xmlns:xlink="http://www.w3.org/1999/xlink" x="0px" y="0px"
	 viewBox="0 0 512 512" style="enable-background:new 0 0 512 512;" xml:space="preserve">
<g>
	<path style="fill:#F2BB80;" d="M256,69.424L256,69.424c33.549,0,60.746,27.197,60.746,60.746v34.712
		c0,33.549-27.197,60.746-60.746,60.746l0,0c-33.549,0-60.746-27.197-60.746-60.746v-34.712
		C195.254,96.62,222.451,69.424,256,69.424z"/>
	<path style="fill:#F2BB80;" d="M446.915,34.712h-52.068l32.716,180.068c-8.183-9.572-20.124-15.108-32.716-15.186
		c-17.243,0.009-32.846,10.231-39.745,26.034H156.898c-6.899-15.803-22.502-26.025-39.745-26.034
		c-12.592,0.078-24.533,5.615-32.716,15.186l32.716-180.068H65.085L4.339,225.627v86.78H125.83L164.361,512H348.16l38.009-199.593
		h121.492v-86.78L446.915,34.712z"/>
</g>
<g>
	<path style="fill:#EBB071;" d="M446.915,34.712h-52.068l32.716,180.068c-4.209-4.938-9.45-8.878-15.36-11.542
		c-3.471,27.336-19.786,80.271-86.78,152.559c-47.425,49.803-105.229,88.55-169.307,113.508L164.795,512H348.16l38.009-199.593
		h121.492v-86.78L446.915,34.712z"/>
	<path style="fill:#EBB071;" d="M82.441,121.492c6.725-0.009,13.381-1.302,19.612-3.818l15.1-82.961H65.085l-21.868,68.816
		C53.074,114.905,67.384,121.457,82.441,121.492z"/>
</g>
<g>
	<path style="fill:#E39D54;" d="M323.341,381.831H188.659c-15.186,0.061-29.089-8.522-35.84-22.129l15.447-7.81
		c3.844,7.741,11.75,12.626,20.393,12.583h134.682c8.643,0.043,16.549-4.842,20.393-12.583l15.447,7.81
		C352.43,373.309,338.527,381.891,323.341,381.831z"/>
	<rect x="247.322" y="277.695" style="fill:#E39D54;" width="17.356" height="225.627"/>
	<path style="fill:#E39D54;" d="M303.729,425.22h-95.458c-16.775,0-30.373-13.598-30.373-30.373
		c0-16.775,13.598-30.373,30.373-30.373h95.458c16.775,0,30.373,13.598,30.373,30.373
		C334.102,411.622,320.503,425.22,303.729,425.22z M208.271,381.831c-7.185,0-13.017,5.832-13.017,13.017
		c0,7.185,5.832,13.017,13.017,13.017h95.458c7.185,0,13.017-5.832,13.017-13.017c0-7.185-5.832-13.017-13.017-13.017H208.271z"/>
	<path style="fill:#E39D54;" d="M303.729,468.61h-95.458c-16.775,0-30.373-13.598-30.373-30.373
		c0-16.774,13.598-30.373,30.373-30.373h95.458c16.775,0,30.373,13.598,30.373,30.373
		C334.102,455.012,320.503,468.61,303.729,468.61z M208.271,425.22c-7.185,0-13.017,5.832-13.017,13.017
		c0,7.185,5.832,13.017,13.017,13.017h95.458c7.185,0,13.017-5.832,13.017-13.017c0-7.185-5.832-13.017-13.017-13.017H208.271z"/>
	<path style="fill:#E39D54;" d="M290.712,512h-69.424c-16.775,0-30.373-13.598-30.373-30.373c0-16.774,13.598-30.373,30.373-30.373
		l0,0h69.424c16.775,0,30.373,13.598,30.373,30.373C321.085,498.402,307.486,512,290.712,512z M221.288,468.61
		c-7.185,0-13.017,5.832-13.017,13.017c0,7.185,5.832,13.017,13.017,13.017h69.424c7.185,0,13.017-5.832,13.017-13.017
		c0-7.185-5.832-13.017-13.017-13.017H221.288z"/>
	<path style="fill:#E39D54;" d="M134.508,277.695h-23.951c-15.186,0.061-29.089-8.522-35.84-22.129l15.447-7.81
		c3.844,7.741,11.75,12.626,20.393,12.583h23.951V277.695z"/>
	<path style="fill:#E39D54;" d="M401.443,277.695h-23.951v-17.356h23.951c8.643,0.043,16.549-4.842,20.393-12.583l15.447,7.81
		C430.531,269.173,416.629,277.756,401.443,277.695z"/>
	<polygon style="fill:#E39D54;" points="256.087,286.546 158.98,268.843 162.104,251.835 255.913,268.843 341.044,251.835 
		344.515,268.843 	"/>
</g>
<circle style="fill:#4398D1;" cx="91.119" cy="52.068" r="52.068"/>
<circle style="fill:#E5E5E5;" cx="91.119" cy="52.068" r="17.356"/>
<path style="fill:#EBB071;" d="M277.868,73.589c2.76,6.96,4.174,14.379,4.165,21.868v34.712c0,33.549-27.197,60.746-60.746,60.746
	c-7.489,0.009-14.909-1.406-21.868-4.165c12.21,31.249,47.434,46.687,78.683,34.478c23.222-9.068,38.539-31.414,38.643-56.346
	v-34.712C316.711,105.09,301.264,82.614,277.868,73.589z"/>
<path style="fill:#E3A35F;" d="M429.559,121.492c-6.725-0.009-13.381-1.302-19.612-3.818l-15.1-82.961h52.068l21.868,68.816
	C458.926,114.905,444.616,121.457,429.559,121.492z"/>
<circle style="fill:#4398D1;" cx="420.881" cy="52.068" r="52.068"/>
<circle style="fill:#E5E5E5;" cx="420.881" cy="52.068" r="17.356"/>
<g>
</g>
<g>
</g>
<g>
</g>
<g>
</g>
<g>
</g>
<g>
</g>
<g>
</g>
<g>
</g>
<g>
</g>
<g>
</g>
<g>
</g>
<g>
</g>
<g>
</g>
<g>
</g>
<g>
</g>
</svg>
