<?xml version="1.0" encoding="utf-8"?>
<!-- Generator: Adobe Illustrator 22.1.0, SVG Export Plug-In . SVG Version: 6.00 Build 0)  -->
<svg version="1.1" xmlns="http://www.w3.org/2000/svg" xmlns:xlink="http://www.w3.org/1999/xlink" x="0px" y="0px"
	 viewBox="0 0 1280 1024" style="enable-background:new 0 0 1280 1024;" xml:space="preserve">
<style type="text/css">
	.st0{display:none;}
	.st1{fill:#E5846B;}
	.st2{fill:#EA361A;}
	.st3{fill:#F8AA8D;}
	.st4{fill:#1A1A1A;}
	.st5{fill:#F2F2F2;}
	.st6{fill:#7F3521;}
	.st7{fill:#FFFFFF;}
	.st8{fill:#E5435A;}
	.st9{fill:#E8745D;}
</style>
<g id="Layer_2">
	<g id="_x33_1KqJp_1_" class="st0">
		
			<image style="display:inline;overflow:visible;" width="760" height="560" id="_x33_1KqJp_2_" xlink:href="B9D32409E83DA4E9.png"  transform="matrix(1 0 0 1 -201 517)">
		</image>
	</g>
	<g id="_x35_tZl5i_1_" class="st0">
		
			<image style="display:inline;overflow:visible;" width="1292" height="728" id="_x35_tZl5i_2_" xlink:href="B9D32409E83DA4EF.png"  transform="matrix(0.5 0 0 0.5 -178 120)">
		</image>
	</g>
</g>
<g id="Suu">
	<g>
		<g>
			<path class="st1" d="M783.8,601H485.4c-17.9,0-32.4-14.5-32.4-32.4v-2.2c0-17.9,14.5-32.4,32.4-32.4h298.4
				c17.9,0,32.4,14.5,32.4,32.4v2.2C816.2,586.5,801.7,601,783.8,601z"/>
			<path class="st2" d="M755,540H528c-39.8,0-72-32.2-72-72v0c0-39.8,32.2-72,72-72h227c39.8,0,72,32.2,72,72v0
				C827,507.8,794.8,540,755,540z"/>
			<path class="st3" d="M638.5,733L638.5,733C553.7,733,485,664.3,485,579.5v-78c0-84.8,68.7-153.5,153.5-153.5h0
				c84.8,0,153.5,68.7,153.5,153.5v78C792,664.3,723.3,733,638.5,733z"/>
			<circle class="st2" cx="598" cy="376" r="85"/>
			<path class="st2" d="M583,373c0,0.1,0,0.3,0,0.4c0,59.4,48.1,107.5,107.5,107.5S798,432.8,798,373.4c0-0.1,0-0.3,0-0.4H583z"/>
			<circle class="st2" cx="683" cy="371" r="43"/>
			<g>
				<circle class="st4" cx="761" cy="569" r="14"/>
				<circle class="st5" cx="765.4" cy="567.5" r="4.4"/>
			</g>
			<g>
				<circle class="st4" cx="555" cy="567" r="14"/>
				<circle class="st5" cx="559.4" cy="565.5" r="4.4"/>
			</g>
			<path class="st2" d="M775.5,552h-30c-6.4,0-11.5-5.1-11.5-11.5l0,0c0-6.4,5.1-11.5,11.5-11.5h30c6.4,0,11.5,5.1,11.5,11.5l0,0
				C787,546.9,781.9,552,775.5,552z"/>
			<path class="st2" d="M571.6,548.6l-29.3,6.4c-6.2,1.3-12.3-2.6-13.7-8.8l0,0c-1.3-6.2,2.6-12.3,8.8-13.7l29.3-6.4
				c6.2-1.3,12.3,2.6,13.7,8.8l0,0C581.7,541.1,577.8,547.2,571.6,548.6z"/>
			<g>
				<path class="st6" d="M758,610.3c-8.3,0-18.9,3.2-31,7.4c-23.1,8-51.5,19.6-79,19.6s-55.9-11.6-79-19.6
					c-12.1-4.2-22.7-7.4-31-7.4c-18.6,0-14.4,58.1,44.1,84.4c17.1,7.7,38.7,12.6,65.9,12.6s48.8-5,65.9-12.6
					C772.4,668.5,776.6,610.3,758,610.3z"/>
				<path class="st7" d="M578,645c12.8,4.9,38.3,12.6,70,12.6s57.2-7.8,70-12.6c5.4-2.1,9-7.3,9-13.1v-9.2
					c-23.1,8-51.5,19.6-79,19.6s-55.9-11.6-79-19.6v9.2C569,637.8,572.6,643,578,645z"/>
				<path class="st8" d="M707.6,670.1c-14.8-4.6-104.3-4.6-119.1,0c-6.5,2-8.8,11.6-6.3,18.6c17.1,7.7,38.7,12.6,65.9,12.6
					s48.8-5,65.9-12.6C716.3,681.8,714,672.1,707.6,670.1z"/>
			</g>
		</g>
		<circle class="st9" cx="619" cy="591" r="2"/>
		<circle class="st9" cx="631" cy="571" r="4"/>
		<circle class="st9" cx="673" cy="570" r="2"/>
		<circle class="st9" cx="658" cy="595" r="2"/>
		<circle class="st9" cx="612" cy="540" r="2"/>
		<circle class="st9" cx="685" cy="550" r="4"/>
		<circle class="st9" cx="689" cy="589" r="4"/>
	</g>
</g>
<g id="Layer_4">
</g>
<g id="Layer_3">
</g>
</svg>
